<svg xmlns="http://www.w3.org/2000/svg" xmlns:xlink="http://www.w3.org/1999/xlink" width="500" zoomAndPan="magnify" viewBox="0 0 375 374.999991" height="500" preserveAspectRatio="xMidYMid meet" version="1.0"><defs><clipPath id="2bdf454077"><path d="M 8 37.5 L 367 37.5 L 367 333.75 L 8 333.75 Z M 8 37.5 " clip-rule="nonzero"/></clipPath></defs><g clip-path="url(#2bdf454077)"><path fill="#000000" d="M 349.808594 198.59375 C 348.898438 109.402344 276.125 37.5 186.523438 37.5 C 96.921875 37.5 24.148438 109.855469 23.238281 199.050781 C 14.597656 205.875 8.230469 214.523438 8.230469 225.445312 L 8.230469 278.6875 C 8.230469 298.253906 28.695312 310.085938 44.617188 316.914062 L 44.617188 321.917969 C 44.617188 328.289062 51.894531 333.75 60.535156 333.75 L 65.082031 333.75 C 73.726562 333.75 81.003906 328.746094 81.003906 321.917969 L 81.003906 184.03125 C 81.003906 177.660156 73.726562 172.199219 65.082031 172.199219 L 60.535156 172.199219 C 57.804688 172.199219 55.078125 172.65625 52.800781 174.019531 C 65.539062 111.222656 121.027344 63.894531 187.433594 63.894531 C 253.839844 63.894531 309.328125 111.222656 322.066406 174.019531 C 319.789062 173.109375 317.0625 172.199219 314.332031 172.199219 L 309.785156 172.199219 C 301.140625 172.199219 293.863281 177.207031 293.863281 184.03125 L 293.863281 321.917969 C 293.863281 328.289062 301.140625 333.75 309.785156 333.75 L 314.332031 333.75 C 322.972656 333.75 330.25 328.746094 330.25 321.917969 L 330.25 316.457031 C 346.171875 309.632812 366.636719 297.800781 366.636719 278.230469 L 366.636719 224.988281 C 365.273438 214.066406 358.453125 205.421875 349.808594 198.59375 Z M 349.808594 198.59375 " fill-opacity="1" fill-rule="nonzero"/></g></svg>