<svg xmlns="http://www.w3.org/2000/svg" xmlns:xlink="http://www.w3.org/1999/xlink" width="500" zoomAndPan="magnify" viewBox="0 0 375 374.999991" height="500" preserveAspectRatio="xMidYMid meet" version="1.0"><defs><clipPath id="ec8cbce57d"><path d="M 16 52.554688 L 360 52.554688 L 360 322.554688 L 16 322.554688 Z M 16 52.554688 " clip-rule="nonzero"/></clipPath></defs><g clip-path="url(#ec8cbce57d)"><path fill="#ffffff" d="M 209.421875 309.46875 C 254.867188 287.695312 286.332031 241.261719 286.332031 187.613281 C 286.332031 113.15625 225.730469 52.578125 151.238281 52.578125 C 76.75 52.578125 16.144531 113.15625 16.144531 187.613281 C 16.144531 262.074219 76.75 322.65625 151.246094 322.65625 L 359.144531 322.65625 L 359.144531 309.472656 L 209.421875 309.472656 Z M 150.71875 83.601562 C 172.742188 83.601562 190.65625 101.507812 190.65625 123.519531 C 190.65625 145.535156 172.742188 163.449219 150.71875 163.449219 C 128.699219 163.449219 110.78125 145.539062 110.78125 123.527344 C 110.78125 101.515625 128.699219 83.601562 150.71875 83.601562 Z M 79.953125 228.945312 C 57.933594 228.945312 40.015625 211.039062 40.015625 189.023438 C 40.015625 167.003906 57.933594 149.101562 79.953125 149.101562 C 101.976562 149.101562 119.894531 167.011719 119.894531 189.023438 C 119.894531 211.035156 101.976562 228.945312 79.953125 228.945312 Z M 150.71875 291.628906 C 128.699219 291.628906 110.78125 273.726562 110.78125 251.707031 C 110.78125 229.6875 128.699219 211.785156 150.71875 211.785156 C 172.742188 211.785156 190.65625 229.695312 190.65625 251.707031 C 190.65625 273.71875 172.742188 291.628906 150.71875 291.628906 Z M 180.710938 189.027344 C 180.710938 167.015625 198.625 149.105469 220.648438 149.105469 C 242.671875 149.105469 260.585938 167.015625 260.585938 189.027344 C 260.585938 211.039062 242.671875 228.949219 220.648438 228.949219 C 198.625 228.949219 180.710938 211.039062 180.710938 189.027344 Z M 180.710938 189.027344 " fill-opacity="1" fill-rule="nonzero"/></g></svg>